<svg xmlns="http://www.w3.org/2000/svg" viewBox="0 0 600 300" width="600" height="300" role="img">
  <defs>
    <linearGradient id="eg" x1="0" y1="0" x2="0.4" y2="1">
      <stop offset="0" stop-color="#EFEBE1"/>
      <stop offset="1" stop-color="#E1DACB"/>
    </linearGradient>
    <filter id="grain2">
      <feTurbulence type="fractalNoise" baseFrequency="0.8" numOctaves="3" seed="88"/>
      <feColorMatrix type="saturate" values="0"/>
      <feComponentTransfer><feFuncA type="linear" slope="0.05"/></feComponentTransfer>
    </filter>
  </defs>
  <rect width="600" height="300" fill="url(#eg)"/>
  
      <rect x="0" y="186" width="600" height="114" fill="#BFB194" opacity="0.18"/>
      <circle cx="168" cy="276" r="317" fill="#D8CDB8" opacity="0.5"/>
      <circle cx="168" cy="276" r="184" fill="#BFB194" opacity="0.45"/>
      <circle cx="168" cy="276" r="70" fill="#7A6E56" opacity="0.55"/>
      <line x1="36" y1="36" x2="36" y2="126" stroke="#7A6E56" stroke-width="1.5" opacity="0.32"/><line x1="47" y1="36" x2="47" y2="126" stroke="#7A6E56" stroke-width="1.5" opacity="0.32"/><line x1="58" y1="36" x2="58" y2="126" stroke="#7A6E56" stroke-width="1.5" opacity="0.32"/><line x1="69" y1="36" x2="69" y2="126" stroke="#7A6E56" stroke-width="1.5" opacity="0.32"/><line x1="80" y1="36" x2="80" y2="126" stroke="#7A6E56" stroke-width="1.5" opacity="0.32"/><line x1="91" y1="36" x2="91" y2="126" stroke="#7A6E56" stroke-width="1.5" opacity="0.32"/><line x1="102" y1="36" x2="102" y2="126" stroke="#7A6E56" stroke-width="1.5" opacity="0.32"/><line x1="113" y1="36" x2="113" y2="126" stroke="#7A6E56" stroke-width="1.5" opacity="0.32"/><line x1="124" y1="36" x2="124" y2="126" stroke="#7A6E56" stroke-width="1.5" opacity="0.32"/><line x1="135" y1="36" x2="135" y2="126" stroke="#7A6E56" stroke-width="1.5" opacity="0.32"/><line x1="146" y1="36" x2="146" y2="126" stroke="#7A6E56" stroke-width="1.5" opacity="0.32"/>
  <rect width="600" height="300" filter="url(#grain2)" opacity="0.7"/>
</svg>